<svg xmlns="http://www.w3.org/2000/svg" viewBox="0 0 432 432"><g fill="none" stroke="#a7ca78" stroke-width="2"><path d="M212.78 299.79q-.39-2.38-2.22-2.47-7.24-.37-31.62.2c-29.39.67-58.73.01-88.12-.17q-9.7-.06-19.31-.55M359.98 289.49l-.22 5.41q0 .04-.04.04h-.06q-.16 0-.16-.19v-1.22q0-.47-.47-.46c-14 .28-28.09.71-42.08.29-4.59-.13-8.89.86-13.44.78-4.6-.07-9.13.26-14.15-.24-14-1.38-28.74-.72-42.82-.62a1.02 1 18 0 0-.81.4q-.6.81-1.49.85" vector-effect="non-scaling-stroke"/></g><path fill="#b3d889" d="M101.22 107.56a1.98 1.96 42.3 0 0-1.66.07c-3.35 1.76-6.22 3.32-10.31 3.5q-9.84.44-17.28 7.01-.41.37-.42-.18-.18-34.35-.03-43.21c.24-14.62 10.4-27.56 24.28-31.74q4.86-1.46 15.18-1.48 37.5-.1 75.01 0 .69 0 .18.47-6.24 5.71-14.68 6.72-2.45.29-3.32 2.51a1.55 1.46-41.1 0 0-.08.83c1.61 8.12-9.53 10.63-15.33 10.96-3.71.21-6.01 6.38-7.34 9.29q-.2.44-.69.44h-.98q-.55 0-.96.36c-1.6 1.43-6.02 5.91-5.05 8.25a1.36 1.18-17.6 0 1-1.01 1.65q-3.19.77-6.18-.65a2.5 2.5 0 0 0-3.4 1.36q-.88 2.29-3.33 4.05c-6.82 4.87-14 10.88-10.33 19.59a.83.82 55.5 0 1-.16.89c-3.93 4.16-8.09.95-12.11-.69ZM255.48 66.22c-2.66-.77-4.81-.58-6.18-3.68a1.04 1.02 81.1 0 0-.81-.6l-5.23-.68a1.37 1.32 72.5 0 1-.81-.44l-5.98-6.9a1.56 1.53 22.2 0 1-.37-.85c-.44-4.35-3.69-7.77-6.57-10.86a.44.43-21.4 0 1 .32-.73q44.48.06 89.2-.01 11.43-.02 16.73 1.41c12.41 3.37 24.31 14.92 24.27 29q-.1 43.08-.03 86.14 0 .58-.54.38-1.3-.47-1.43-1.74-.48-4.59-3.25-7.58a1.48 1.45-70.1 0 1-.39-.86c-.3-3.62-2.47-4.37-5.91-4.68q-7.23-.63-12.88-4.93c-4.94-3.78-7.56-5.41-12.55-7.16-5.42-1.9-.32-11.66-8.03-15.79a2.4 2.4 0 0 1-.89-3.41q4.07-6.39-.43-12.5-.36-.49-.94-.64l-2.01-.5q-.68-.16-.62-.86.38-4.26 2.34-8.03a1.02 1 45.6 0 0 0-.93q-2.02-4.09-4.65-5.63c-1.84-1.07-5.12-.21-6.8-.46-5.52-.8-5.77-7.22-11.77-8.58a1.03 1.01-52.8 0 0-.76.11l-3.66 2.07a.85.84 40.8 0 1-.75.05q-4.02-1.73-7.73.55a2.17 2.11 30.2 0 1-1.2.3q-3.98-.18-3.05-2.56.13-.32.92-1.18c2.15-2.32-.47-5.8-3.48-5.58q-2.73.19-5.45-.17a1.1 1.09-63.6 0 0-.94.32L260 71.32a1.81 1.8-29.2 0 1-3.07-.86l-.77-3.51a.99.97 2.7 0 0-.68-.73ZM212.78 299.79q-.39-2.38-2.22-2.47-7.24-.37-31.62.2c-29.39.67-58.73.01-88.12-.17q-9.7-.06-19.31-.55V160.17a.39.39 0 0 1 .65-.28q1.53 1.44 3.4 2.79c3.22 2.35 4 .6 7.27.29a.42.41 3.9 0 1 .45.51l-.89 3.64q-.14.6.37.94c2.93 1.99 2.65 4.65 4.09 7.15q1.31 2.27 2.24 4.72.15.41.52.65l6.18 3.96q.43.27.94.24c2.57-.17 5.27-.96 7.48.78q.41.32.85.06 2.15-1.27 4.19-.12 6.1 3.46 11.41.48a1.75 1.74-3.5 0 1 2.47 2.18c-.81 1.98-3.11 5.96-2.42 7.89a1.05 1.05 0 0 0 .99.7h1.1a1.5 1.5 0 0 1 1.47 1.81l-.55 2.66a.48.48 0 0 0 .42.58q2.11.25 2.94 2.08.21.47.05.96c-1.97 5.81 1.04 7.19 3.39 11.58a3.21 3.19 69.1 0 0 3.56 1.61l6.74-1.59a1.2 1.2 0 0 1 1.36 1.7q-.38.76-.09 1.72.14.45.5.76 1.66 1.45 3.86 1.42a1.11 1.09-68.8 0 0 .82-.37l3.16-3.49a.78.78 0 0 1 .47-.25c6.39-.97 6.17 5.17 13.05-1.73a3.05 3.04-47.8 0 1 4.1-.2l8.35 6.95a.91.9-70.6 0 1 .33.7l.03 3.19a1.54 1.52 26.7 0 0 .31.92q2.76 3.64 5.6 5.81c6.64 5.09 12.63 11.14 19.72 9.55q.5-.12.85.27c4.05 4.55.68 13.17 1.05 18.29.36 5 2.68 10.21 3.68 13.71 2.57 9.03 5.89 17.07 4.81 24.4ZM209.11 184.41l4.75-2.57a.61.61 0 0 1 .84.27l1.37 2.83a.8.8 0 0 1-.34 1.05q-2.36 1.26-2.89 3.88a.51.51 0 0 1-.93.18l-3.06-4.59a.73.73 0 0 1 .26-1.05ZM250.03 198.78a.27.27 0 0 1 .12.44q-2.7 2.99-4.4 6.63a1.18 1.18 0 0 1-2.25-.5v-.83q0-.62-.39-1.12-2.69-3.45.86-6.32a.56.55 33.5 0 1 .52-.1l5.54 1.8ZM201.46 213.39a.63.63 0 0 1 .58.77l-.26 1.14q-.15.62-.78.56-4.54-.45-7.06-4.18a1.18 1.18 0 0 1 1.18-1.82l4.15.72a.62.61 10.9 0 1 .5.73q-.42 1.95 1.69 2.08ZM273.06 212.11a1.67 1.66-73.4 0 1 2.06-1.12c1.86.55 2.42 1.66 2.22 3.61q-.35 3.47.67 7.9.32 1.41-1.1 2.68-3.22 2.88-6.4 5.53a1.87 1.86-20.6 0 1-3.06-1.38q-.08-3.23 1.61-5.8a1.5 1.49 61.4 0 0 .25-.86q-.01-2.17.41-4.19c.52-2.48 2.55-3.76 3.34-6.37ZM359.98 289.49l-.22 5.41q0 .04-.04.04h-.06q-.16 0-.16-.19v-1.22q0-.47-.47-.46c-14 .28-28.09.71-42.08.29-4.59-.13-8.89.86-13.44.78-4.6-.07-9.13.26-14.15-.24-14-1.38-28.74-.72-42.82-.62a1.02 1 18 0 0-.81.4q-.6.81-1.49.85c-.71-7.24-.24-13.81 2.67-20.5q2.21-5.08 1.83-10.5a1.52 1.52 0 0 1 .95-1.51q4.26-1.7 8.57-3.52c3.3-1.4 6.03-3.53 9.13-5.4 3.18-1.9 7.93-1.11 11.5-.81a1.18 1.17-83.8 0 0 1.26-1.02c.9-6.82 6.61-8.02 11.04-12.23q.36-.34.38-.85c.15-3.11 1.69-3.83 4.65-4.5q3.72-.85 6.11-3.95.31-.4.81-.46 3.66-.41 5.12 2.61a1.06.03 45.3 0 0 .65.7q1.28 1.29 2.88.59.53-.23.44-.8-.15-.92.71-1.3 3.77-1.67 6.46.93.41.39.96.28l2.98-.58q.55-.11.89-.55 1.06-1.38 2.86-1.13.54.07.88.49 2.39 2.84 5.83 0c4.9-4.02 8.25-8.91 15.36-7.46q.51.1.97-.13c5.39-2.7 4.97-7.46 9.3-10.78a.35.35 0 0 1 .56.28l-.01 77.06Z"/><path fill="#9abc66" d="M359.98 289.49c.04 5.8.92 13.42-1.16 18.8-5.84 15.06-18.18 22.45-34.08 22.45q-34.78.02-69.57.01c-5.54 0-8.53-4.28-8.84-9.56q-.52-8.94-2.09-26.66.89-.04 1.49-.85a1.02 1 18 0 1 .81-.4c14.08-.1 28.82-.76 42.82.62 5.02.5 9.55.17 14.15.24 4.55.08 8.85-.91 13.44-.78 13.99.42 28.08-.01 42.08-.29q.47-.01.47.46v1.22q0 .19.16.19h.06q.04 0 .04-.04l.22-5.41ZM71.51 296.8q9.61.49 19.31.55c29.39.18 58.73.84 88.12.17q24.38-.57 31.62-.2 1.83.09 2.22 2.47c-1.05 12.72-1.43 22.19-9.63 30.59q-.36.37-.88.37H109.8q-9.22 0-13.96-1.38-13.53-3.93-20.43-16.79-3.94-7.35-3.9-15.78ZM356.15 339.26a5.2 5.2 0 0 1-5.2 5.2 5.2 5.2 0 0 1-5.2-5.2 5.2 5.2 0 0 1 5.2-5.2 5.2 5.2 0 0 1 5.2 5.2Zm-2.83 3.1c-1.9-.3-1.27-1.38-2.32-2.16q-.39-.29-.83-.17-.59.15-.43.74.24.91-.47 1.22a.47.46-41 0 0-.06.83q2.18 1.29 4.11-.46c5-3.5-1.82-10.64-5.85-5.15q-1.66 2.26.44 4.52a.34.34 0 0 0 .59-.23v-3.3a1.7 1.69 62.1 0 1 .29-.95c1.49-2.15 5.67-.16 3.64 1.98q-.35.37-.14.83l1.03 2.3Zm-3.39-3.57 1.52.26a.52.51 65.4 0 0 .35-.95l-.91-.56q-.44-.27-.7.17l-.43.72q-.18.3.17.36ZM233.5 351.24v-8.72a.98.98 0 0 1 .43-.81l5.39-3.59a.44.44 0 0 1 .68.36v41.65q0 .62-.63.62h-5.12q-.75 0-.75-.75v-1.73a.36.36 0 0 0-.56-.3c-18.87 12.61-36.08-16.27-17.2-27.07q8.17-4.67 17.31.6.45.26.45-.26Zm-.1 13.58a9.68 9.68 0 0 0-9.68-9.68 9.68 9.68 0 0 0-9.68 9.68 9.68 9.68 0 0 0 9.68 9.68 9.68 9.68 0 0 0 9.68-9.68ZM258.25 355.46v24.83a.46.46 0 0 1-.46.46h-5.58a.46.46 0 0 1-.46-.46v-24.83a.46.46 0 0 0-.46-.46h-7.08a.46.46 0 0 1-.46-.46v-5.58a.46.46 0 0 1 .46-.46h7.08a.46.46 0 0 0 .46-.46v-5.71a.46.46 0 0 1 .2-.39l5.58-3.71a.46.46 0 0 1 .72.38v9.43a.46.46 0 0 0 .46.46h7.08a.46.46 0 0 1 .46.46v5.58a.46.46 0 0 1-.46.46h-7.08a.46.46 0 0 0-.46.46ZM276.5 352.5q0 3.15.88.1 1.03-3.61 4.14-5.62.48-.31 1.05-.24l5.23.63q.45.05.35.49c-1.06 4.37-4.71 8.72-9.73 7.87q-.51-.09-.78.35c-2.71 4.35-1.4 18.64-1.38 24.19a.73.73 0 0 1-.73.73h-5.03q-.5 0-.5-.5v-31.38q0-.62.63-.62h5.24q.63 0 .63.62v3.38ZM83 367.76c-11.04.06-12.83-17.58.08-19.17 7.59-.94 15.63-.05 16.73 9.03q.08.63-.56.63H94.8q-.45 0-.71-.37l-1.98-2.78a.8.78 71.6 0 0-.64-.33q-3.45-.05-6.86-.02c-5.61.05-5.14 6.42-1.8 6.66 3.67.27 8.38-.11 11.43 1.18 5.6 2.39 7.39 9.03 4.19 14.02-2.98 4.65-8.08 4.53-13.38 4.4-6.08-.15-10.48-2.46-11.32-9.15a.55.54 86.7 0 1 .54-.61h4.97a.7.7 0 0 1 .68.55c.88 3.95 9.56 3.76 12.1 2.46 1.91-.97 2.2-3.98.49-5.45-1.74-1.51-6.79-1.07-9.51-1.05ZM145.28 366.81c1.32 7.02 9.52 9.78 15.15 5.54a1.77 1.74-62.9 0 1 1.05-.35h6.75q.72 0 .36.62c-5.63 9.79-18.94 10.91-26.12 2.68-7.89-9.03-3.44-23.12 8.08-26.19 10.74-2.87 20.11 5.49 20.24 16.35a.79.78-.4 0 1-.79.79h-24.25q-.58 0-.47.56Zm17.26-7.52c-3.18-6.73-12.54-4.62-16.19.24a.33.33 0 0 0 .27.53l15.58-.22q.59-.01.34-.55ZM179.16 376.84c-10.53-8.98-5.06-26.46 8.39-28.12 10.33-1.27 17.95 6.25 18.3 16.66a.84.84 0 0 1-.84.87h-24.04a.79.78-12.7 0 0-.71 1.12q4.76 9.97 14.03 5.8 2.54-1.15 4.3-1.2 2.39-.08 4.85.08.66.04.32.61c-5.24 8.82-16.77 10.87-24.6 4.18Zm18.43-17.76c-4.05-6.07-12.02-4.86-15.92.32q-.53.7.35.68l15.22-.33q.78-.02.35-.67ZM314.78 372.54c-7.46 12.89-27.41 10.05-29.94-5.06-2.01-12.03 9.21-21.62 20.75-18.14 6.84 2.07 11.68 8.96 11.1 16.29q-.04.62-.66.62h-24.27q-.53 0-.42.52c1.42 7.04 9.65 9.84 15.28 5.53a1.45 1.44-63.6 0 1 .88-.3h6.98q.61 0 .3.54Zm-6.22-13.41c-3.92-6.24-12.03-4.89-15.89.28q-.51.69.35.67l15.21-.33q.7-.02.33-.62ZM326.92 366.94c1.6 7.08 9.63 9.6 15.34 5.32q.34-.26.77-.26h6.93q.62 0 .31.54c-9 15.51-32.85 7.35-29.87-10.44 3.34-19.91 33.01-16.77 31.74 3.76q-.02.39-.41.39h-24.26q-.7 0-.55.69Zm17.17-7.89c-4.15-6.05-12.03-4.86-15.9.36a.42.42 0 0 0 .35.67l15.19-.33q.83-.01.36-.7Z"/><path fill="#9abc66" d="M110.25 378.5v8.55a1.01 1-17.2 0 1-.44.83l-4.59 3.05a.78.78 0 0 1-1.22-.65V349.5q0-.75.75-.75h4.75q.75 0 .75.75v1.47q0 .6.54.33c23.93-11.96 35.7 22.24 13.81 28.84q-6.77 2.05-13.75-1.99-.6-.34-.6.35Zm19.51-13.71a9.68 9.68 0 0 0-9.68-9.68 9.68 9.68 0 0 0-9.68 9.68 9.68 9.68 0 0 0 9.68 9.68 9.68 9.68 0 0 0 9.68-9.68Z"/></svg>